<svg width="55" height="32" viewBox="0 0 55 32" fill="none" xmlns="http://www.w3.org/2000/svg">
<g clip-path="url(#clip0_1592_5286)">
<path d="M4.63822 16C4.63822 19.0298 4.98422 21.7884 5.66686 24.1824C6.23729 26.2116 6.95733 27.9883 7.81765 29.4939L4.27352 32C3.17008 30.2887 2.23495 28.2969 1.4775 26.0526C0.495617 23.1257 0 19.7405 0 16C0 12.2595 0.495617 8.87434 1.4775 5.9474C2.23495 3.7031 3.17008 1.71128 4.27352 0L7.81765 2.50614C6.96669 4.01169 6.23729 5.79778 5.66686 7.827C4.98422 10.2116 4.63822 12.9702 4.63822 16Z" fill="white"/>
<path d="M49.4997 16C49.4997 12.9702 49.1537 10.2116 48.4711 7.81765C47.9007 5.78843 47.1806 4.01169 46.3203 2.50614L49.8644 0C50.9679 1.71128 51.903 3.7031 52.6605 5.9474C53.6423 8.87434 54.138 12.2595 54.138 16C54.138 19.7405 53.6423 23.1257 52.6605 26.0526C51.903 28.2969 50.9679 30.2887 49.8644 32L46.3203 29.4939C47.1713 27.9883 47.9007 26.2022 48.4711 24.173C49.1537 21.7884 49.4997 19.0298 49.4997 16Z" fill="white"/>
<path d="M35.9456 7.81485C34.2998 6.39346 31.8778 5.66406 28.7452 5.66406C27.3051 5.66406 25.5564 5.79498 23.5739 6.05682C21.8159 6.2906 19.9924 6.66465 18.1502 7.15091V10.5174C18.7861 10.349 19.3939 10.2088 19.9737 10.0779C20.8901 9.87213 21.7598 9.69445 22.5546 9.56354C23.3682 9.42327 24.1724 9.32976 24.9299 9.2643C25.6873 9.20819 26.4541 9.18013 27.2209 9.18013C29.0912 9.18013 30.5313 9.38586 31.6254 9.80667C32.841 10.2836 33.6733 11.0504 34.1034 12.0977L34.6271 13.3882H24.2098C21.367 13.3882 19.2069 13.9586 17.8042 15.0995C16.4296 16.2029 15.7656 17.7459 15.7656 19.8125C15.7656 21.8791 16.4576 23.4314 17.8697 24.563C19.3191 25.7319 21.5447 26.3303 24.481 26.3303C26.8001 26.3303 28.5394 25.9656 29.6522 25.2362C30.765 24.5068 31.5786 23.4595 32.1397 22.0381L32.3735 21.4396H34.1689V26.2836H38.3583V13.9867C38.3583 11.2561 37.5728 9.23624 35.9456 7.81485ZM34.1221 17.0352C34.0193 18.9615 33.159 20.4671 31.5692 21.4957C30.0917 22.4589 28.0251 22.9452 25.4255 22.9452C23.6955 22.9452 22.4518 22.6833 21.6195 22.141C20.6844 21.5425 20.1794 20.6074 20.1794 19.4478C20.1794 18.176 20.7685 16.0533 24.668 16.0533H34.1782L34.1221 17.0352Z" fill="white"/>
</g>
<defs>
<clipPath id="clip0_1592_5286">
<rect width="54.1344" height="32" fill="white"/>
</clipPath>
</defs>
</svg>
