<svg width="764" height="86" viewBox="0 0 764 86" fill="none" xmlns="http://www.w3.org/2000/svg">
<path d="M752.544 43.0547C752.544 36.2376 751.766 30.0307 750.23 24.6444C748.946 20.0787 747.326 16.081 745.391 12.6935L753.365 7.05469C755.848 10.9051 757.952 15.3867 759.656 20.4363C761.865 27.022 762.98 34.6386 762.98 43.0547C762.98 51.4708 761.865 59.0874 759.656 65.673C757.952 70.7227 755.848 75.2043 753.365 79.0547L745.391 73.4159C747.305 70.0284 748.946 66.0097 750.23 61.4439C751.766 56.0786 752.544 49.8717 752.544 43.0547Z" fill="white"/>
<path d="M10.5298 43.0859C10.5298 49.903 11.3082 56.1099 12.8442 61.4962C14.1276 66.062 15.7478 70.0596 17.6835 73.4471L9.70918 79.0859C7.22642 75.2355 5.12239 70.754 3.41812 65.7043C1.20889 59.1187 0.09375 51.5021 0.09375 43.0859C0.09375 34.6698 1.20889 27.0532 3.41812 20.4676C5.12239 15.4179 7.22642 10.9363 9.70918 7.08594L17.6835 12.7247C15.7688 16.1122 14.1276 20.1309 12.8442 24.6967C11.3082 30.062 10.5298 36.2689 10.5298 43.0859Z" fill="white"/>
<path d="M81.0144 24.6127C77.3113 21.4146 71.8619 19.7734 64.8133 19.7734C61.5731 19.7734 57.6386 20.068 53.178 20.6571C49.2225 21.1831 45.1196 22.0248 40.9747 23.1188V30.6934C42.4054 30.3146 43.773 29.999 45.0775 29.7045C47.1395 29.2416 49.0962 28.8418 50.8847 28.5473C52.7152 28.2316 54.5246 28.0212 56.2289 27.874C57.9332 27.7477 59.6585 27.6846 61.3838 27.6846C65.5918 27.6846 68.832 28.1475 71.2938 29.0943C74.029 30.1674 75.9016 31.8927 76.8695 34.2492L78.0477 37.1527H54.6088C48.2125 37.1527 43.3522 38.4362 40.1962 41.0031C37.1032 43.4859 35.6094 46.9575 35.6094 51.6075C35.6094 56.2574 37.1664 59.7501 40.3434 62.2959C43.6047 64.926 48.6123 66.2726 55.219 66.2726C60.437 66.2726 64.3505 65.452 66.8543 63.8108C69.3581 62.1697 71.1886 59.8132 72.451 56.6151L72.977 55.2685H77.0167V66.1674H86.4428V38.4993C86.4428 32.3556 84.6754 27.8108 81.0144 24.6127ZM76.9115 45.3585C76.6801 49.6928 74.7444 53.0803 71.1675 55.3947C67.8431 57.5619 63.1932 58.656 57.344 58.656C53.4516 58.656 50.6532 58.0668 48.7806 56.8465C46.6766 55.4999 45.5404 53.3959 45.5404 50.7869C45.5404 47.9254 46.8659 43.1492 55.6398 43.1492H77.0378L76.9115 45.3585Z" fill="white"/>
<path d="M143.695 29.618C142.811 27.5981 141.528 25.8517 139.886 24.421C138.224 22.9482 136.162 21.812 133.785 21.0125C131.365 20.1919 128.609 19.7711 125.621 19.7711C124.232 19.7711 122.886 19.8552 121.581 20.0025C120.277 20.1708 118.846 20.4233 117.31 20.781C115.753 21.1387 114.007 21.6226 112.134 22.2538C110.22 22.885 107.968 23.6846 105.485 24.6735L102.603 25.8097V0.6875H92.6719V66.165H102.603V34.7097L103.718 34.1206C107.316 32.227 110.682 30.7541 113.754 29.7442C116.952 28.6922 119.477 28.1872 121.476 28.1872C125.663 28.1872 129.03 29.4075 131.449 31.8061C133.869 34.2258 135.089 37.5291 135.089 41.632V66.165H145.02V36.5192C145.02 33.9733 144.578 31.6589 143.695 29.618Z" fill="white"/>
<path d="M238.017 29.4099C237.092 27.348 235.808 25.6016 234.209 24.2129C232.61 22.8243 230.674 21.7091 228.486 20.9517C226.256 20.1732 223.857 19.7734 221.354 19.7734C218.597 19.7734 215.273 20.2784 211.486 21.2673C207.698 22.2772 203.532 23.9605 199.114 26.2749L197.683 27.0324L196.589 25.8541C194.927 24.0446 192.739 22.5718 190.13 21.4567C187.521 20.3415 184.764 19.7734 181.966 19.7734C179.378 19.7734 176.622 20.1311 173.781 20.8044C170.857 21.4987 167.238 22.677 163.03 24.3181L160.168 25.4333V19.8786H150.742V66.1674H160.673V34.8383L161.641 34.2281C164.524 32.3556 167.469 30.8617 170.394 29.8097C173.466 28.7156 175.927 28.1896 177.926 28.1896C179.504 28.1896 181.04 28.4421 182.492 28.947C184.049 29.473 185.417 30.3357 186.553 31.4719C187.668 32.608 188.552 34.0598 189.183 35.7641C189.814 37.4473 190.13 39.4251 190.13 41.6343V66.1674H200.061V34.8383L201.029 34.2281C203.911 32.3556 206.857 30.8617 209.781 29.8097C212.853 28.7156 215.315 28.1896 217.314 28.1896C218.892 28.1896 220.428 28.4421 221.88 28.947C223.437 29.473 224.804 30.3357 225.94 31.4719C227.055 32.608 227.939 34.0598 228.591 35.7851C229.202 37.4473 229.517 39.4251 229.517 41.6343V66.1674H239.448V36.5215C239.448 33.8705 238.964 31.4719 238.017 29.4099Z" fill="white"/>
<path d="M288.046 24.6127C284.343 21.4146 278.893 19.7734 271.845 19.7734C268.583 19.7734 264.67 20.068 260.209 20.6571C256.233 21.1831 252.151 22.0248 248.006 23.1188V30.6934C249.437 30.3146 250.804 29.999 252.109 29.7045C254.171 29.2416 256.127 28.8418 257.916 28.5473C259.746 28.2316 261.556 28.0212 263.26 27.874C264.964 27.7477 266.69 27.6846 268.415 27.6846C272.623 27.6846 275.863 28.1475 278.304 29.0943C281.06 30.1674 282.933 31.8927 283.901 34.2492L285.079 37.1527H261.64C255.244 37.1527 250.383 38.4362 247.206 41.0031C244.134 43.4859 242.641 46.9575 242.641 51.6075C242.641 56.2574 244.198 59.7501 247.354 62.2959C250.636 64.926 255.644 66.2726 262.25 66.2726C267.468 66.2726 271.382 65.452 273.886 63.8108C276.389 62.1697 278.22 59.8132 279.482 56.6151L280.008 55.2685H284.048V66.1674H293.474V38.4993C293.474 32.3556 291.707 27.8108 288.046 24.6127ZM283.943 45.3585C283.711 49.6928 281.776 53.0803 278.199 55.3947C274.874 57.5619 270.224 58.656 264.375 58.656C260.483 58.656 257.684 58.0668 255.812 56.8465C253.687 55.4999 252.572 53.3959 252.572 50.7869C252.572 47.9254 253.876 43.1492 262.65 43.1492H284.069L283.943 45.3585Z" fill="white"/>
<path d="M344.655 0.6875V24.6735L341.856 23.7056C338.111 22.3801 334.681 21.3912 331.652 20.7389C328.685 20.1077 325.718 19.7711 322.857 19.7711C318.354 19.7711 314.399 20.3812 311.158 21.5595C307.96 22.6957 305.309 24.3579 303.247 26.4619C301.206 28.5659 299.67 31.0908 298.702 33.9943C297.692 36.9821 297.188 40.3485 297.188 43.9885C297.188 47.3339 297.798 50.3847 298.976 53.0989C300.175 55.8132 301.837 58.1697 303.941 60.1054C306.045 62.0411 308.612 63.577 311.558 64.629C314.546 65.7231 317.828 66.2702 321.342 66.2702C326.307 66.2702 330.41 65.4917 333.503 63.9978C336.533 62.525 338.889 60.1895 340.72 56.9072L341.309 55.8132H345.159V66.165H354.586V0.6875H344.655ZM344.655 41.3164C344.655 46.5344 342.929 50.6583 339.521 53.5618C336.217 56.4023 331.567 57.8541 325.676 57.8541C322.478 57.8541 319.701 57.5174 317.47 56.8652C315.135 56.1919 313.199 55.1819 311.747 53.8564C310.275 52.5309 309.202 50.8897 308.549 48.975C307.939 47.2077 307.624 45.1878 307.624 43.0206C307.624 38.0551 309.159 34.2679 312.189 31.7851C315.114 29.3655 319.448 28.1872 325.382 28.1872C328.58 28.1872 331.799 28.6291 334.892 29.5127C337.943 30.3964 340.846 31.5326 343.518 32.9213L344.655 33.5314V41.3164Z" fill="white"/>
<path d="M371.367 2.03408C370.399 1.15039 368.842 0.6875 366.78 0.6875C364.718 0.6875 363.182 1.15039 362.214 2.05512C361.289 2.89673 360.826 4.01187 360.805 5.50573V5.65302C360.805 7.21 361.268 8.38826 362.193 9.25091C363.182 10.1556 364.718 10.6185 366.78 10.6185C368.842 10.6185 370.399 10.1556 371.367 9.25091C372.293 8.38826 372.756 7.21 372.756 5.65302V5.50573C372.735 4.01187 372.272 2.89673 371.367 2.03408ZM361.815 19.8763V66.165H371.746V19.8763H361.815Z" fill="white"/>
<path d="M436.514 24.6127C432.811 21.4146 427.362 19.7734 420.313 19.7734C417.052 19.7734 413.139 20.068 408.678 20.6571C404.701 21.1831 400.62 22.0248 396.454 23.1188V30.6934C397.905 30.3146 399.273 29.978 400.556 29.7045C402.618 29.2416 404.575 28.8418 406.385 28.5473C408.215 28.2316 410.025 28.0212 411.729 27.874C413.433 27.7477 415.158 27.6846 416.884 27.6846C421.092 27.6846 424.332 28.1475 426.773 29.0943C429.508 30.1674 431.402 31.8927 432.369 34.2492L433.548 37.1527H410.109C403.713 37.1527 398.852 38.4362 395.675 41.0031C392.603 43.4859 391.109 46.9575 391.109 51.6075C391.109 56.2574 392.645 59.7501 395.822 62.2959C399.105 64.926 404.112 66.2726 410.719 66.2726C415.937 66.2726 419.85 65.452 422.354 63.8108C424.858 62.1697 426.689 59.8132 427.951 56.6151L428.477 55.2685H432.517V66.1674H441.943V38.4993C441.943 32.3556 440.175 27.8108 436.514 24.6127ZM432.412 45.3585C432.18 49.6928 430.244 53.0803 426.668 55.3947C423.322 57.5619 418.672 58.656 412.844 58.656C408.952 58.656 406.153 58.0668 404.281 56.8465C402.156 55.4999 401.04 53.3959 401.04 50.7869C401.04 47.9254 402.345 43.1492 411.119 43.1492H432.538L432.412 45.3585Z" fill="white"/>
<path d="M493.113 19.8786V23.8553L490.419 23.0557C486.695 21.9616 483.224 21.1411 480.131 20.594C477.101 20.047 474.071 19.7734 471.104 19.7734C466.539 19.7734 462.541 20.3836 459.259 21.5619C456.018 22.7191 453.346 24.3602 451.305 26.4222C449.243 28.4841 447.687 31.009 446.698 33.8915C445.667 36.8582 445.141 40.2036 445.141 43.8225C445.141 47.189 445.751 50.2819 446.929 52.9961C448.128 55.7103 449.812 58.0668 451.958 59.9815C454.146 61.9383 456.755 63.4742 459.701 64.5473C462.688 65.6203 466.013 66.1674 469.589 66.1674C474.639 66.1674 478.784 65.3889 481.898 63.8529C484.97 62.3591 487.348 60.0025 489.157 56.6571L489.767 55.563H493.618V62.0435C493.618 74.0154 481.772 76.5402 471.82 76.5402C467.401 76.5402 463.067 76.1405 458.901 75.362C455.85 74.7729 452.926 74.0154 450.19 73.0896V82.137C452.82 83.0207 455.913 83.7781 459.448 84.3883C463.635 85.1037 467.99 85.4613 472.43 85.4613C482.719 85.4613 490.525 83.3994 495.595 79.3386C496.311 78.7705 496.984 78.1603 497.573 77.5081C501.255 73.6156 503.044 68.2924 503.044 61.3491V19.8786H493.113ZM493.113 40.4771C493.113 45.9055 491.366 50.2188 487.916 53.2696C484.528 56.2363 479.794 57.7512 473.84 57.7512C470.62 57.7512 467.843 57.4146 465.592 56.7834C463.193 56.089 461.236 55.0581 459.764 53.7325C458.249 52.3649 457.155 50.7238 456.502 48.8301C455.892 47.0627 455.577 45.0429 455.577 42.8336C455.577 37.9312 457.134 34.2071 460.206 31.7454C463.172 29.3468 467.528 28.1896 473.545 28.1896C476.827 28.1896 480.11 28.6735 483.266 29.6203C486.401 30.5461 489.346 31.7664 492.04 33.2603L493.113 33.8705V40.4771Z" fill="white"/>
<path d="M561.261 32.7132C560.019 30.0622 558.231 27.7477 555.916 25.8541C553.602 23.9605 550.656 22.4456 547.206 21.3935C543.671 20.3205 539.652 19.7734 535.234 19.7734C530.815 19.7734 526.839 20.3415 523.346 21.4356C519.937 22.5087 516.971 24.0657 514.572 26.0645C512.216 28.0212 510.385 30.4619 509.144 33.2813C507.881 36.1639 507.25 39.4251 507.25 43.023C507.25 50.4713 509.775 56.047 514.972 60.0867C520.253 64.1896 527.996 66.2726 537.969 66.2726C542.408 66.2726 546.532 65.9359 550.235 65.2837C553.391 64.7366 556.358 63.9792 559.093 63.0534V55.016C556.337 56.0259 553.518 56.8044 550.719 57.3094C546.953 58.0037 543.166 58.3614 539.484 58.3614C533.319 58.3614 528.648 57.5408 525.218 55.8786C521.599 54.0902 519.159 51.2708 517.981 47.4835L517.118 44.7483H562.923C562.944 44.58 562.986 44.4117 563.007 44.2223C563.091 43.4859 563.133 42.6864 563.133 41.8237C563.133 38.4783 562.502 35.4064 561.261 32.7132ZM516.929 38.352L517.896 35.5537C519.979 29.6624 525.765 26.6747 535.149 26.6747C544.533 26.6747 550.214 29.6624 552.36 35.5326L553.391 38.352H516.929Z" fill="white"/>
<path d="M618.33 29.6203C617.446 27.6004 616.184 25.8541 614.543 24.4233C612.859 22.9505 610.819 21.8143 608.441 21.0148C606 20.1942 603.265 19.7734 600.277 19.7734C598.868 19.7734 597.479 19.8576 596.153 19.9838C594.807 20.1311 593.334 20.3836 591.777 20.7203C590.178 21.0569 588.39 21.5408 586.433 22.1089C584.434 22.7191 582.098 23.4555 579.532 24.3392L576.754 25.286V19.8786H567.328V66.1674H577.259V34.7121L578.374 34.1229C581.951 32.2293 585.339 30.7565 588.411 29.7466C591.609 28.6945 594.134 28.1896 596.132 28.1896C600.319 28.1896 603.665 29.4099 606.084 31.8085C608.525 34.2281 609.745 37.5315 609.745 41.6343V66.1674H619.676V36.5215C619.676 33.9757 619.235 31.6612 618.33 29.6203Z" fill="white"/>
<path d="M671.699 22.656V31.2404C668.985 30.2305 666.271 29.5151 663.641 29.0733C660.106 28.4841 656.697 28.1896 653.499 28.1896C646.83 28.1896 642.011 29.4309 638.813 31.9979C635.51 34.6489 633.827 38.352 633.827 43.023C633.827 47.694 635.51 51.3971 638.813 54.0481C642.011 56.6151 646.809 57.8564 653.499 57.8564C656.697 57.8564 660.106 57.5829 663.62 57.0359C666.25 56.6361 668.964 55.9628 671.699 55.037V63.39C669.322 64.2316 666.586 64.9049 663.515 65.3889C659.854 65.978 656.003 66.2726 652.09 66.2726C647.419 66.2726 643.211 65.6834 639.613 64.5262C636.036 63.369 633.027 61.7699 630.607 59.7501C628.251 57.7512 626.441 55.3316 625.242 52.5332C624.001 49.6928 623.391 46.4947 623.391 43.023C623.391 39.5513 624.001 36.3532 625.242 33.5128C626.441 30.7144 628.251 28.2948 630.607 26.2959C633.027 24.2761 636.036 22.677 639.613 21.5198C643.211 20.3626 647.419 19.7734 652.09 19.7734C656.003 19.7734 659.854 20.068 663.515 20.6571C665.787 21.0148 667.87 21.4777 669.785 22.0458C670.437 22.2352 671.089 22.4456 671.699 22.656Z" fill="white"/>
<path d="M727.524 19.8828L704.737 67.7075C702.97 71.3895 701.266 74.4614 699.688 76.8179C698.173 79.0693 696.552 80.8577 694.911 82.0991C693.291 83.3194 691.482 84.1821 689.546 84.687C687.505 85.192 685.086 85.4655 682.392 85.4655C680.941 85.4655 679.552 85.3813 678.247 85.213C677.595 85.1499 676.985 85.0447 676.417 84.9185V76.6075C676.417 76.6075 676.648 76.6496 676.775 76.6707C678.163 76.9231 679.72 77.0494 681.382 77.0494C683.991 77.0494 686.285 76.4182 688.221 75.1978C690.156 73.9565 691.86 71.7893 693.46 68.5281L693.922 67.6233L693.481 66.6975L673.808 25.5637L671.304 20.3036L671.094 19.8828H682.161L697.142 51.9693L697.71 53.1686H701.097L701.665 51.9693L716.646 19.8828H727.524Z" fill="white"/>
</svg>
